<?xml version="1.0" encoding="utf-8"?>
<!-- Generator: Adobe Illustrator 25.2.1, SVG Export Plug-In . SVG Version: 6.00 Build 0)  -->
<svg version="1.1" id="Layer_1" xmlns="http://www.w3.org/2000/svg" xmlns:xlink="http://www.w3.org/1999/xlink" x="0px" y="0px"
	 viewBox="0 0 727.2 285.5" style="enable-background:new 0 0 727.2 285.5;" xml:space="preserve">
<style type="text/css">
	.st0{fill:#292929;}
	.st1{fill:url(#SVGID_1_);}
	.st2{fill:#FFFFFF;}
</style>
<g>
	<g>
		<path class="st0" d="M16,269.4h35v14.9H0v-66.6h16.1v51.7H16z"/>
		<path class="st0" d="M152.8,251c0,19-15.5,34.5-34.4,34.5C99.3,285.5,84,270,84,251c0-18.9,15.3-34.5,34.4-34.5
			C137.3,216.5,152.8,232.1,152.8,251z M98.8,251c0,10.9,8.8,19.6,19.7,19.6c10.7,0,19.5-8.7,19.5-19.6c0-10.8-8.8-19.5-19.5-19.5
			C107.6,231.5,98.8,240.2,98.8,251z"/>
		<path class="st0" d="M243.7,232.6h-35v15.3h29.2v14.8h-29.2v21.6h-16.1v-66.6h51v14.9L243.7,232.6L243.7,232.6z"/>
		<path class="st0" d="M301.4,258.6h-16v-40.9h16V258.6z"/>
		<path class="st0" d="M379.2,258.4h-36.1v-14.9h36.1V258.4z"/>
		<path class="st0" d="M485.2,250.9c0,19.4-14.4,33.4-35.1,33.4h-29.5v-66.5l29.5-0.1C472,217.6,485.2,231.7,485.2,250.9z
			 M436.7,269.4h13.4c11.2,0,18.9-7.3,18.9-18.5c0-11.9-7.5-18.3-18.9-18.3h-13.4V269.4z"/>
		<path class="st0" d="M575.9,217.7v14.9h-35v11.5h29.2V258h-29.2v11.4h35v14.9h-51v-66.6L575.9,217.7L575.9,217.7z"/>
		<path class="st0" d="M669.3,232.6h-35v15.3h29.2v14.8h-29.2v21.6h-16.1v-66.6h51L669.3,232.6L669.3,232.6z"/>
		<path class="st0" d="M727.2,284.3h-16.1v-40h16.1V284.3z"/>
		<rect x="285.6" y="268.2" class="st0" width="16.1" height="16.1"/>
		<rect x="711.1" y="217.7" class="st0" width="16.1" height="16.1"/>
	</g>
	<g>
		<g id="Layer_2_4_">
			<g>
				
					<linearGradient id="SVGID_1_" gradientUnits="userSpaceOnUse" x1="297.669" y1="164.7686" x2="429.531" y2="296.6306" gradientTransform="matrix(1 0 0 -1 0 308.8996)">
					<stop  offset="0" style="stop-color:#002EA0"/>
					<stop  offset="5.972254e-02" style="stop-color:#1329AB"/>
					<stop  offset="0.2207" style="stop-color:#411CC4"/>
					<stop  offset="0.3825" style="stop-color:#6712D9"/>
					<stop  offset="0.5422" style="stop-color:#840AEA"/>
					<stop  offset="0.6997" style="stop-color:#9905F6"/>
					<stop  offset="0.8536" style="stop-color:#A601FD"/>
					<stop  offset="1" style="stop-color:#AA00FF"/>
				</linearGradient>
				<path class="st1" d="M441.8,114.7c0,22.9-18.8,41.7-41.7,41.7h-73c-22.9,0-41.7-18.8-41.7-41.7v-73c0-22.9,18.8-41.7,41.7-41.7
					h73c22.9,0,41.7,18.8,41.7,41.7V114.7z"/>
			</g>
		</g>
		<g>
			<polygon class="st2" points="383.6,88.7 363.6,108.8 336.1,81.3 327.9,89.5 363.6,125.2 391.8,97 			"/>
			
				<rect x="373.1" y="68.9" transform="matrix(0.7071 -0.7071 0.7071 0.7071 55.7216 288.412)" class="st2" width="5.9" height="16.2"/>
			<path class="st2" d="M406.2,45.7c-10-9.4-25.8-8.6-35.5,1.1l-7.1,7.1l35.7,35.7l7.6-7.6C416.9,71.9,416.7,55.5,406.2,45.7z"/>
			<path class="st2" d="M323.3,79c-4.1-4.1-6.3-9.5-6.2-15.2c0.1-5.8,2.5-11.1,6.7-15c3.8-3.5,8.8-5.5,14.1-5.5
				c5.8,0,11.5,2.4,15.6,6.5l5,5l2.9-2.9l-4.9-5c-5.1-5.1-11.8-7.7-18.6-7.7c-6.1,0-12.2,2.2-17,6.6c-10.5,9.8-10.7,26.2-0.6,36.3
				l5.4,5.4l3-2.9L323.3,79z"/>
		</g>
	</g>
</g>
</svg>
