<?xml version="1.0" encoding="utf-8"?>
<!-- Generator: Adobe Illustrator 25.2.1, SVG Export Plug-In . SVG Version: 6.00 Build 0)  -->
<svg version="1.1" id="Layer_1" xmlns="http://www.w3.org/2000/svg" xmlns:xlink="http://www.w3.org/1999/xlink" x="0px" y="0px"
	 viewBox="0 0 911.8 131.9" style="enable-background:new 0 0 911.8 131.9;" xml:space="preserve">
<style type="text/css">
	.st0{fill:#FFFFFF;}
	.st1{fill:url(#SVGID_1_);}
</style>
<path class="st0" d="M200.6,87h35v14.9h-51V35.3h16.1V87H200.6z M303,34.1c19,0,34.4,15.4,34.4,34.5S322,103.1,303,103.1
	s-34.4-15.4-34.4-34.5S284,34.1,303,34.1z M283.4,68.6c0,10.9,8.8,19.6,19.7,19.6c10.7,0,19.5-8.7,19.5-19.6
	c0-10.8-8.8-19.5-19.5-19.5C292.2,49.1,283.4,57.8,283.4,68.6z M428.3,50.2h-35v15.3h29.2v14.8h-29.2v21.6h-16.1V35.3h51v14.9
	C428.2,50.2,428.3,50.2,428.3,50.2z M486,76.2h-16V35.3h16V76.2z M563.8,76h-36.1V61.1h36.1V76z M669.8,68.5
	c0,19.4-14.4,33.4-35.1,33.4h-29.5V35.4l29.5-0.1C656.6,35.2,669.8,49.3,669.8,68.5z M621.3,87h13.4c11.2,0,18.9-7.3,18.9-18.5
	c0-11.9-7.5-18.3-18.9-18.3h-13.4V87z M760.5,35.3v14.9h-35v11.5h29.2v13.9h-29.2V87h35v14.9h-51V35.3H760.5z M853.9,50.2h-35v15.3
	h29.2v14.8h-29.2v21.6h-16.1V35.3h51L853.9,50.2L853.9,50.2z M911.8,101.9h-16.1v-40h16.1V101.9z M470.2,85.8h16.1v16.1h-16.1V85.8z
	 M895.7,35.3h16.1v16.1h-16.1V35.3z"/>
<g>
	<g id="Layer_2_2_">
		<g>
			
				<linearGradient id="SVGID_1_" gradientUnits="userSpaceOnUse" x1="10.3" y1="599.1" x2="121" y2="488.4" gradientTransform="matrix(1 0 0 1 0 -478)">
				<stop  offset="0" style="stop-color:#002EA0"/>
				<stop  offset="5.972254e-02" style="stop-color:#1329AB"/>
				<stop  offset="0.2207" style="stop-color:#411CC4"/>
				<stop  offset="0.3825" style="stop-color:#6712D9"/>
				<stop  offset="0.5422" style="stop-color:#840AEA"/>
				<stop  offset="0.6997" style="stop-color:#9905F6"/>
				<stop  offset="0.8536" style="stop-color:#A601FD"/>
				<stop  offset="1" style="stop-color:#AA00FF"/>
			</linearGradient>
			<path class="st1" d="M131.3,96.4c0,19.2-15.8,35-35,35H35c-19.2,0-35-15.8-35-35V35.1c0-19.2,15.8-35,35-35h61.3
				c19.2,0,35,15.8,35,35V96.4z"/>
		</g>
	</g>
	<g>
		<polygon class="st0" points="82.5,74.6 65.7,91.4 42.6,68.4 35.7,75.3 65.7,105.2 89.4,81.5 		"/>
		
			<rect x="73.6" y="57.9" transform="matrix(0.7071 -0.7071 0.7071 0.7071 -23.4443 72.7473)" class="st0" width="5" height="13.6"/>
		<path class="st0" d="M101.4,38.5c-8.4-7.9-21.7-7.2-29.8,0.9l-6,6l29.9,29.9l6.3-6.3C110.4,60.5,110.2,46.7,101.4,38.5z"/>
		<path class="st0" d="M31.8,66.4c-3.4-3.4-5.3-8-5.2-12.8c0.1-4.8,2.1-9.3,5.6-12.6c3.2-3,7.4-4.6,11.9-4.6c4.9,0,9.6,2,13.1,5.4
			l4.2,4.2l2.4-2.4l-4.2-4.2c-4.3-4.3-9.9-6.5-15.6-6.5c-5.1,0-10.2,1.8-14.2,5.6c-8.8,8.2-9,22-0.5,30.5l4.5,4.5l2.5-2.4L31.8,66.4
			z"/>
	</g>
</g>
</svg>
